# xmcd
#
# Track frame offsets: 
#        150
#        15811
#        39282
#        56427
#        75187
#        87435
#        99460
#        111311
#        124300
#        142342
#        161189
#        173401
#        193335
#        204502
#        228672
#        243611
#        260715
#        280894
#        294156
#        306236
#
# Disc length: 4355 seconds
#
# Revision: 2
# Processed by: cddbd v1.5.2PL0 Copyright (c) Steve Scherf et al.
# Submitted via: ExactAudioCopy v0.99pb4
#
DISCID=1b110114
DTITLE=Duet Selimova and Zelceski - Zapisano u vremenu [CD 1)
DYEAR=2007
DGENRE=Folk
TTITLE0=Makedonsko devojce
TTITLE1=Zajdi, zajdi jasno sonce
TTITLE2=Ako umram il zaginam
TTITLE3=Ljubi me ljubi me
TTITLE4=Bitola moj roden kraj
TTITLE5=Tudjinata pusta da ostane
TTITLE6=Kako sto e taa casa
TTITLE7=Mirjano mome Mirjano
TTITLE8=Dej gidi ludi mladi godini
TTITLE9=Rume mome
TTITLE10=Aj da begame Vaske
TTITLE11=Ja izlezi stara majko
TTITLE12=Edno vreme si bev ergen
TTITLE13=Nema mi Libe
TTITLE14=Ajd zasvirite mi calgijii
TTITLE15=Sva noc le Nado
TTITLE16=Zosto mi se srdis Libe
TTITLE17=Kaljo Kaljino devojce
TTITLE18=Vie se oro
TTITLE19=Bratski da se splotime
EXTD=
EXTT0=
EXTT1=
EXTT2=
EXTT3=
EXTT4=
EXTT5=
EXTT6=
EXTT7=
EXTT8=
EXTT9=
EXTT10=
EXTT11=
EXTT12=
EXTT13=
EXTT14=
EXTT15=
EXTT16=
EXTT17=
EXTT18=
EXTT19=
PLAYORDER=
